<svg width="28" height="28" viewBox="0 0 28 28" fill="none" xmlns="http://www.w3.org/2000/svg">
<path d="M11.5 6H16.5C16.5 5.33696 16.2366 4.70107 15.7678 4.23223C15.2989 3.76339 14.663 3.5 14 3.5C13.337 3.5 12.7011 3.76339 12.2322 4.23223C11.7634 4.70107 11.5 5.33696 11.5 6V6ZM10 6C10 4.93913 10.4214 3.92172 11.1716 3.17157C11.9217 2.42143 12.9391 2 14 2C15.0609 2 16.0783 2.42143 16.8284 3.17157C17.5786 3.92172 18 4.93913 18 6H24.25C24.4489 6 24.6397 6.07902 24.7803 6.21967C24.921 6.36032 25 6.55109 25 6.75C25 6.94891 24.921 7.13968 24.7803 7.28033C24.6397 7.42098 24.4489 7.5 24.25 7.5H22.94L21.723 22.103C21.6345 23.1653 21.1499 24.1556 20.3655 24.8774C19.5811 25.5992 18.554 25.9999 17.488 26H10.512C9.44599 25.9999 8.41894 25.5992 7.6345 24.8774C6.85007 24.1556 6.36554 23.1653 6.277 22.103L5.06 7.5H3.75C3.55109 7.5 3.36032 7.42098 3.21967 7.28033C3.07902 7.13968 3 6.94891 3 6.75C3 6.55109 3.07902 6.36032 3.21967 6.21967C3.36032 6.07902 3.55109 6 3.75 6H10ZM7.772 21.978C7.82919 22.6654 8.14262 23.3062 8.65015 23.7734C9.15767 24.2405 9.82222 24.4999 10.512 24.5H17.488C18.1778 24.4999 18.8423 24.2405 19.3499 23.7734C19.8574 23.3062 20.1708 22.6654 20.228 21.978L21.436 7.5H6.565L7.772 21.978ZM11.75 11C11.9489 11 12.1397 11.079 12.2803 11.2197C12.421 11.3603 12.5 11.5511 12.5 11.75V20.25C12.5 20.4489 12.421 20.6397 12.2803 20.7803C12.1397 20.921 11.9489 21 11.75 21C11.5511 21 11.3603 20.921 11.2197 20.7803C11.079 20.6397 11 20.4489 11 20.25V11.75C11 11.5511 11.079 11.3603 11.2197 11.2197C11.3603 11.079 11.5511 11 11.75 11ZM17 11.75C17 11.5511 16.921 11.3603 16.7803 11.2197C16.6397 11.079 16.4489 11 16.25 11C16.0511 11 15.8603 11.079 15.7197 11.2197C15.579 11.3603 15.5 11.5511 15.5 11.75V20.25C15.5 20.4489 15.579 20.6397 15.7197 20.7803C15.8603 20.921 16.0511 21 16.25 21C16.4489 21 16.6397 20.921 16.7803 20.7803C16.921 20.6397 17 20.4489 17 20.25V11.75Z" fill="white"/>
</svg>
